<svg width="35" height="35" viewBox="0 0 35 35" fill="none" xmlns="http://www.w3.org/2000/svg">
<rect width="35" height="35" rx="5" fill="url(#paint0_linear_162_7)"/>
<path d="M17.75 10.5813C20.0693 10.5813 20.3855 10.5813 21.3343 10.5813C22.1777 10.5813 22.5994 10.7922 22.9157 10.8976C23.3374 11.1084 23.6536 11.2139 23.9699 11.5301C24.2861 11.8464 24.497 12.1627 24.6024 12.5843C24.7078 12.9006 24.8133 13.3223 24.9187 14.1657C24.9187 15.1145 24.9187 15.3253 24.9187 17.75C24.9187 20.1747 24.9187 20.3855 24.9187 21.3343C24.9187 22.1777 24.7078 22.5994 24.6024 22.9157C24.3916 23.3374 24.2861 23.6536 23.9699 23.9699C23.6536 24.2861 23.3374 24.497 22.9157 24.6024C22.5994 24.7078 22.1777 24.8133 21.3343 24.9187C20.3855 24.9187 20.1747 24.9187 17.75 24.9187C15.3253 24.9187 15.1145 24.9187 14.1657 24.9187C13.3223 24.9187 12.9006 24.7078 12.5843 24.6024C12.1627 24.3916 11.8464 24.2861 11.5301 23.9699C11.2139 23.6536 11.003 23.3374 10.8976 22.9157C10.7922 22.5994 10.6867 22.1777 10.5813 21.3343C10.5813 20.3855 10.5813 20.1747 10.5813 17.75C10.5813 15.3253 10.5813 15.1145 10.5813 14.1657C10.5813 13.3223 10.7922 12.9006 10.8976 12.5843C11.1084 12.1627 11.2139 11.8464 11.5301 11.5301C11.8464 11.2139 12.1627 11.003 12.5843 10.8976C12.9006 10.7922 13.3223 10.6867 14.1657 10.5813C15.1145 10.5813 15.4307 10.5813 17.75 10.5813ZM17.75 9C15.3253 9 15.1145 9 14.1657 9C13.2169 9 12.5843 9.21084 12.0572 9.42169C11.5301 9.63253 11.003 9.9488 10.4759 10.4759C9.9488 11.003 9.73795 11.4247 9.42169 12.0572C9.21084 12.5843 9.10542 13.2169 9 14.1657C9 15.1145 9 15.4307 9 17.75C9 20.1747 9 20.3855 9 21.3343C9 22.2831 9.21084 22.9157 9.42169 23.4428C9.63253 23.9699 9.9488 24.497 10.4759 25.0241C11.003 25.5512 11.4247 25.7621 12.0572 26.0783C12.5843 26.2892 13.2169 26.3946 14.1657 26.5C15.1145 26.5 15.4307 26.5 17.75 26.5C20.0693 26.5 20.3855 26.5 21.3343 26.5C22.2831 26.5 22.9157 26.2892 23.4428 26.0783C23.9699 25.8675 24.497 25.5512 25.0241 25.0241C25.5512 24.497 25.7621 24.0753 26.0783 23.4428C26.2892 22.9157 26.3946 22.2831 26.5 21.3343C26.5 20.3855 26.5 20.0693 26.5 17.75C26.5 15.4307 26.5 15.1145 26.5 14.1657C26.5 13.2169 26.2892 12.5843 26.0783 12.0572C25.8675 11.5301 25.5512 11.003 25.0241 10.4759C24.497 9.9488 24.0753 9.73795 23.4428 9.42169C22.9157 9.21084 22.2831 9.10542 21.3343 9C20.3855 9 20.1747 9 17.75 9Z" fill="white"/>
<path d="M17.75 13.2169C15.2199 13.2169 13.2169 15.2199 13.2169 17.75C13.2169 20.2801 15.2199 22.2831 17.75 22.2831C20.2801 22.2831 22.2831 20.2801 22.2831 17.75C22.2831 15.2199 20.2801 13.2169 17.75 13.2169ZM17.75 20.7018C16.1687 20.7018 14.7982 19.4367 14.7982 17.75C14.7982 16.1687 16.0633 14.7982 17.75 14.7982C19.3313 14.7982 20.7018 16.0633 20.7018 17.75C20.7018 19.3313 19.3313 20.7018 17.75 20.7018Z" fill="white"/>
<path d="M22.3886 14.1657C22.9708 14.1657 23.4428 13.6937 23.4428 13.1114C23.4428 12.5292 22.9708 12.0572 22.3886 12.0572C21.8063 12.0572 21.3343 12.5292 21.3343 13.1114C21.3343 13.6937 21.8063 14.1657 22.3886 14.1657Z" fill="white"/>
<defs>
<linearGradient id="paint0_linear_162_7" x1="-2" y1="18" x2="35" y2="18" gradientUnits="userSpaceOnUse">
<stop stop-color="#FF4846"/>
<stop offset="1" stop-color="#FF754E"/>
</linearGradient>
</defs>
</svg>
